<?xml version="1.0" encoding="utf-8"?>
<svg fill="#beb4a7" width="24px" height="24px" viewBox="0 0 24 24" xmlns="http://www.w3.org/2000/svg">
    <path d="M19.952,5.672c-1.904-1.531-4.916-1.79-5.044-1.801c-0.201-0.017-0.392,0.097-0.474,0.281 c-0.006,0.012-0.072,0.163-0.145,0.398c1.259,0.212,2.806,0.64,4.206,1.509c0.224,0.139,0.293,0.434,0.154,0.659 c-0.09,0.146-0.247,0.226-0.408,0.226c-0.086,0-0.173-0.023-0.252-0.072C15.584,5.38,12.578,5.305,12,5.305S8.415,5.38,6.011,6.872 c-0.225,0.14-0.519,0.07-0.659-0.154c-0.14-0.225-0.07-0.519,0.154-0.659c1.4-0.868,2.946-1.297,4.206-1.509 c-0.074-0.236-0.14-0.386-0.145-0.398C9.484,3.968,9.294,3.852,9.092,3.872c-0.127,0.01-3.139,0.269-5.043,1.801 C3.545,6.146,1,12.456,1,17.514c0,0.073,0.018,0.144,0.053,0.209c1.347,2.48,5.004,3.124,5.836,3.151 c0.002,0,0.003,0,0.005,0c0.182,0,0.354-0.087,0.46-0.233l0.999-1.355c-2.359-0.612-3.564-1.67-3.644-1.738 c-0.198-0.168-0.223-0.465-0.055-0.664c0.168-0.199,0.465-0.223,0.664-0.055c0.025,0.021,2.807,2.396,8.682,2.396 c5.881,0,8.657-2.375,8.682-2.396c0.199-0.168,0.496-0.144,0.664,0.055c0.168,0.199,0.143,0.496-0.055,0.664 c-0.08,0.068-1.285,1.126-3.644,1.738l0.999,1.355c0.107,0.146,0.279,0.233,0.46,0.233c0.002,0,0.003,0,0.005,0 c0.832-0.027,4.489-0.671,5.836-3.151c0.035-0.065,0.053-0.136,0.053-0.209C23,12.456,20.455,6.146,19.952,5.672z M8.891,14.87 c-0.924,0-1.674-0.857-1.674-1.913s0.749-1.913,1.674-1.913s1.674,0.857,1.674,1.913S9.816,14.87,8.891,14.87z M15.109,14.87 c-0.924,0-1.674-0.857-1.674-1.913s0.749-1.913,1.674-1.913c0.924,0,1.674,0.857,1.674,1.913S16.033,14.87,15.109,14.87z"/>
</svg>